#!OML:ASF H:\Terrain\Patient Classification 1\PLAYGROUND\JustinFriday\JustinFriday.ASF
:FULLY-SPECIFIED
:DEGREES
512
root 13.8534 21.0791 11.8818 107.961 -4.68615 -175.269
lowerback 52.3002 -0.889863 13.6073
upperback 3.97285 3.64435 0.817798
thorax -15.5747 -0.543473 -6.63467
lowerneck 6.92006 -5.4122 -3.63098
upperneck 12.1445 -9.43808 7.65774
head 3.38692 -5.20455 3.06183
rclavicle -6.16232e-014 -1.51076e-014
rhumerus 90.4041 -0.904332 -150.655
rradius 20.1175
rwrist 77.3627
rhand 31.6688 17.6
rfingers 7.12502
rthumb 55.2007 -0.392509
lclavicle -6.16232e-014 -1.51076e-014
lhumerus 85.2606 -6.50168 54.4199
lradius 24.6137
lwrist -10.4879
lhand -34.7289 -7.06246
lfingers 7.12502
lthumb -7.88316 22.7706
rfemur -95.2438 -8.86282 33.8621
rtibia 103.778
rfoot -11.4379 -7.73819
rtoes 28.8358
lfemur -99.1214 15.612 -25.2252
ltibia 93.6827
lfoot -7.13266 -31.3429
ltoes -26.5723
513
root 13.8555 21.0711 11.6995 107.345 -4.93461 -175.128
lowerback 52.3083 -0.884823 13.4499
upperback 4.02128 3.5477 0.799692
thorax -15.5496 -0.574281 -6.53975
lowerneck 6.96259 -5.36476 -3.47872
upperneck 12.1263 -9.39682 7.81717
head 3.37197 -5.18233 3.09202
rclavicle -1.59028e-015 5.56597e-015
rhumerus 90.6035 -0.811281 -150.466
rradius 20.01
rwrist 77.3293
rhand 32.1142 16.9406
rfingers 7.12502
rthumb 55.597 -0.757242
lclavicle -1.59028e-015 5.56597e-015
lhumerus 85.5693 -6.4711 54.644
lradius 24.4571
lwrist -10.5998
lhand -34.3011 -7.06074
lfingers 7.12502
lthumb -7.47017 22.7874
rfemur -95.8947 -8.83722 33.4872
rtibia 105.533
rfoot -11.7653 -7.76176
rtoes 27.6755
lfemur -99.4682 15.0912 -25.3983
ltibia 94.0111
lfoot -5.13337 -31.8466
ltoes -27.8698
514
root 13.85 21.0767 11.4897 106.652 -4.82742 -174.925
lowerback 52.4772 -0.995618 13.6322
upperback 3.95695 3.54081 0.759571
thorax -15.6271 -0.594353 -6.6553
lowerneck 7.08531 -5.31243 -3.12416
upperneck 12.1148 -9.33986 7.89139
head 3.32666 -5.15115 3.05849
rclavicle 6.67916e-014 4.05521e-014
rhumerus 90.8521 -0.847072 -150.267
rradius 19.8502
rwrist 77.3751
rhand 32.6343 16.0882
rfingers 7.12502
rthumb 56.0584 -1.25619
lclavicle 6.67916e-014 4.05521e-014
lhumerus 85.8111 -6.51314 54.3076
lradius 24.4646
lwrist -10.2498
lhand -33.8979 -6.89508
lfingers 7.12502
lthumb -7.08102 22.9665
rfemur -96.5378 -8.77025 33.4041
rtibia 107.461
rfoot -12.4075 -7.4238
rtoes 27.5547
lfemur -99.3691 14.6935 -25.1451
ltibia 94.6054
lfoot -6.75885 -31.915
ltoes -31.6218
515
root 13.8456 21.0784 11.2985 105.978 -4.39804 -174.585
lowerback 52.696 -1.20413 14.0765
upperback 3.82428 3.60452 0.834471
thorax -15.7558 -0.606626 -6.7819
lowerneck 7.26098 -5.18212 -3.09127
upperneck 12.0166 -9.20275 8.19718
head 3.26949 -5.08954 3.16874
rclavicle 3.49861e-014 -1.11319e-014
rhumerus 90.8535 -0.985026 -149.87
rradius 19.9582
rwrist 77.0832
rhand 33.1563 15.4973
rfingers 7.12502
rthumb 56.52 -1.48169
lclavicle 3.49861e-014 -1.11319e-014
lhumerus 86.0323 -6.59674 54.3022
lradius 24.2784
lwrist -10.2031
lhand -33.5325 -6.7416
lfingers 7.12502
lthumb -6.72828 23.1315
rfemur -96.9423 -8.7577 33.6998
rtibia 109.215
rfoot -13.2318 -7.02911
rtoes 27.1089
lfemur -99.6082 14.326 -24.4239
ltibia 95.4075
lfoot -5.86321 -32.3599
ltoes -32.1266
516
root 13.841 21.0801 11.1141 105.282 -4.40741 -174.322
lowerback 52.7739 -1.31689 14.1958
upperback 3.86326 3.52354 0.843448
thorax -15.7153 -0.651256 -6.77646
lowerneck 7.4433 -5.10154 -2.95662
upperneck 11.6669 -9.05908 8.383
head 3.10859 -5.01309 3.22082
rclavicle 8.74653e-015 -3.26007e-014
rhumerus 90.822 -1.05658 -149.246
rradius 20.246
rwrist 76.4862
rhand 33.7204 15.003
rfingers 7.12502
rthumb 57.017 -1.56884
lclavicle 8.74653e-015 -3.26007e-014
lhumerus 86.4031 -6.6053 54.3727
lradius 24.0602
lwrist -10.3041
lhand -33.2275 -6.61284
lfingers 7.12502
lthumb -6.43389 23.2694
rfemur -97.3444 -8.94162 33.547
rtibia 110.913
rfoot -14.0783 -6.59505
rtoes 25.9247
lfemur -99.8302 13.9087 -24.2133
ltibia 96.3455
lfoot -4.12694 -32.9323
ltoes -31.5529
517
root 13.8378 21.0828 10.9292 104.526 -4.47516 -174.133
lowerback 52.9378 -1.46609 14.4075
upperback 3.90134 3.41763 0.609888
thorax -15.668 -0.707386 -7.07603
lowerneck 7.45109 -5.1006 -2.37271
upperneck 11.5244 -9.03162 8.46648
head 3.02978 -4.98211 3.14446
rclavicle 5.24792e-014 5.00937e-014
rhumerus 91.1688 -1.11154 -149.487
rradius 20.2918
rwrist 76.586
rhand 34.0765 14.4473
rfingers 7.12502
rthumb 57.3298 -1.8606
lclavicle 5.24792e-014 5.00937e-014
lhumerus 86.9506 -6.68632 53.5228
lradius 24.0549
lwrist -9.67527
lhand -32.8998 -6.32456
lfingers 7.12502
lthumb -6.11744 23.5671
rfemur -97.7402 -9.12529 33.4276
rtibia 112.594
rfoot -14.7766 -6.34192
rtoes 24.4683
lfemur -99.9611 13.583 -24.1602
ltibia 97.4022
lfoot -3.61851 -33.432
ltoes -31.4786
518
root 13.835 21.0841 10.7518 103.794 -4.33077 -173.931
lowerback 53.2288 -1.6354 14.7097
upperback 3.71818 3.44482 0.424041
thorax -15.8778 -0.721487 -7.42699
lowerneck 7.60048 -5.05046 -1.97066
upperneck 11.7437 -9.05791 8.72997
head 3.07811 -5.00462 3.16523
rclavicle -5.725e-014 -7.55382e-014
rhumerus 91.352 -1.58539 -149.34
rradius 20.4195
rwrist 76.2078
rhand 34.5114 13.9738
rfingers 7.12502
rthumb 57.7107 -2.00432
lclavicle -5.725e-014 -7.55382e-014
lhumerus 87.2423 -7.0193 52.8278
lradius 24.0344
lwrist -9.07539
lhand -32.5678 -6.08007
lfingers 7.12502
lthumb -5.79699 23.8206
rfemur -98.0877 -9.26681 33.656
rtibia 114.168
rfoot -15.3269 -6.19994
rtoes 24.7398
lfemur -100.166 13.3014 -23.8047
ltibia 98.5625
lfoot -3.36475 -33.9895
ltoes -31.989
519
root 13.8304 21.0875 10.5804 103.086 -4.14019 -173.72
lowerback 53.4625 -1.69963 14.7888
upperback 3.38517 3.58025 0.492296
thorax -16.2878 -0.684302 -7.45139
lowerneck 8.58957 -4.95042 -1.82555
upperneck 11.6532 -8.98939 8.88555
head 2.87097 -5.02315 3.2289
rclavicle 2.62396e-014 -3.33958e-014
rhumerus 91.1092 -2.36066 -148.44
rradius 20.6548
rwrist 75.5558
rhand 35.2588 13.305
rfingers 7.12502
rthumb 58.3624 -2.08674
lclavicle 2.62396e-014 -3.33958e-014
lhumerus 87.0329 -7.54497 52.9002
lradius 23.9047
lwrist -8.99673
lhand -32.2494 -5.94608
lfingers 7.12502
lthumb -5.48957 23.9628
rfemur -98.4125 -9.39928 33.9587
rtibia 115.625
rfoot -15.8975 -6.30864
rtoes 24.6139
lfemur -100.398 13.0025 -23.3198
ltibia 99.786
lfoot -1.96722 -34.4713
ltoes -32.3313
520
root 13.8265 21.0944 10.4107 102.41 -3.92602 -173.574
lowerback 53.5891 -1.5884 14.6754
upperback 3.29235 3.74144 0.740965
thorax -16.4198 -0.625824 -7.18962
lowerneck 9.03685 -4.86585 -1.84404
upperneck 11.5088 -8.8703 8.90294
head 2.73677 -4.98458 3.25659
rclavicle 6.20208e-014 4.77083e-014
rhumerus 90.9999 -2.56727 -147.631
rradius 20.7358
rwrist 75.7205
rhand 36.1747 12.2411
rfingers 7.12502
rthumb 59.1557 -2.39596
lclavicle 6.20208e-014 4.77083e-014
lhumerus 87.0693 -7.6208 52.795
lradius 23.7781
lwrist -8.69229
lhand -31.9124 -5.68443
lfingers 7.12502
lthumb -5.16412 24.2326
rfemur -98.718 -9.41798 34.3388
rtibia 116.963
rfoot -16.4591 -6.70583
rtoes 24.6418
lfemur -100.691 12.7658 -22.8802
ltibia 101.03
lfoot 0.460956 -34.7821
ltoes -31.4796
521
root 13.8236 21.104 10.2467 101.777 -3.81259 -173.46
lowerback 53.7357 -1.77742 15.1438
upperback 3.43996 3.66156 0.367639
thorax -16.1869 -0.680353 -7.76771
lowerneck 8.07212 -4.95095 -1.31802
upperneck 11.7719 -8.99914 9.07229
head 2.99001 -4.99298 3.1817
rclavicle -4.77083e-015 4.77083e-015
rhumerus 91.9922 -2.31025 -150.273
rradius 19.9602
rwrist 76.0357
rhand 34.676 13.4746
rfingers 7.12502
rthumb 57.8546 -2.37653
lclavicle -4.77083e-015 4.77083e-015
lhumerus 87.9339 -7.64023 51.5841
lradius 23.9048
lwrist -7.8095
lhand -31.4533 -5.36163
lfingers 7.12502
lthumb -4.72082 24.5658
rfemur -99.0698 -9.51529 34.7619
rtibia 118.236
rfoot -16.7883 -7.19214
rtoes 24.9671
lfemur -101.036 12.5018 -22.6996
ltibia 102.256
lfoot 3.48598 -34.8278
ltoes -28.1464
522
root 13.8193 21.1167 10.0881 101.123 -3.59946 -173.251
lowerback 54.051 -2.20583 15.993
upperback 3.31622 3.6004 -0.225479
thorax -16.2465 -0.751397 -8.77885
lowerneck 7.76856 -5.04306 -0.550115
upperneck 11.7982 -9.15117 9.33106
head 3.04125 -5.04108 3.11895
rclavicle -4.77083e-015 2.54444e-014
rhumerus 92.6323 -2.78917 -149.591
rradius 20.5541
rwrist 76.81
rhand 36.6784 11.4268
rfingers 7.12502
rthumb 59.5894 -2.77742
lclavicle -4.77083e-015 2.54444e-014
lhumerus 88.6007 -8.26144 50.7642
lradius 24.0308
lwrist -7.33175
lhand -30.8669 -5.12706
lfingers 7.12502
lthumb -4.15462 24.8122
rfemur -99.4707 -9.71491 35.3763
rtibia 119.593
rfoot -17.1119 -7.69771
rtoes 25.3531
lfemur -101.529 12.2302 -22.5911
ltibia 103.543
lfoot 7.04957 -34.5838
ltoes -22.639
523
root 13.8122 21.137 9.91998 100.429 -3.22831 -173.075
lowerback 54.2209 -2.59734 16.8422
upperback 3.18615 3.60621 -0.683142
thorax -16.2901 -0.791132 -9.67284
lowerneck 8.338 -5.0661 0.0647596
upperneck 11.2709 -9.13958 9.66332
head 2.74919 -5.05227 3.14759
rclavicle 6.44062e-014 4.77083e-015
rhumerus 93.4448 -3.23866 -151.598
rradius 19.9753
rwrist 76.6673
rhand 35.7029 12.3672
rfingers 7.12502
rthumb 58.7478 -2.66374
lclavicle 6.44062e-014 4.77083e-015
lhumerus 89.104 -8.99556 50.5016
lradius 23.9127
lwrist -7.43264
lhand -30.3694 -4.8414
lfingers 7.12502
lthumb -3.67422 25.1067
rfemur -99.9089 -9.76178 36.0863
rtibia 121.121
rfoot -17.4898 -8.25016
rtoes 25.93
lfemur -102.174 12.1473 -22.5847
ltibia 105.048
lfoot 8.67479 -34.8639
ltoes -19.0768
524
root 13.802 21.1671 9.74297 99.8034 -2.47485 -172.837
lowerback 54.3807 -2.82788 17.571
upperback 3.01329 3.83339 -0.674941
thorax -16.3701 -0.748933 -10.0699
lowerneck 8.66613 -5.0815 0.244439
upperneck 11.0029 -9.14034 9.84623
head 2.60328 -5.06834 3.19302
rclavicle 3.97569e-014 5.40694e-014
rhumerus 93.6477 -3.90019 -150.664
rradius 20.09
rwrist 75.787
rhand 36.3906 11.7609
rfingers 7.12502
rthumb 59.3419 -2.6922
lclavicle 3.97569e-014 5.40694e-014
lhumerus 89.4262 -9.35544 50.0637
lradius 23.8346
lwrist -6.97618
lhand -29.9301 -4.50648
lfingers 7.12502
lthumb -3.24994 25.4485
rfemur -100.252 -9.69201 37.1147
rtibia 122.6
rfoot -18.0275 -8.70106
rtoes 26.8165
lfemur -102.958 12.2049 -22.3895
ltibia 106.788
lfoot 7.93544 -35.5335
ltoes -17.5384
525
root 13.7897 21.1936 9.57129 99.0451 -1.88503 -172.647
lowerback 54.7873 -3.34432 18.7777
upperback 2.71688 3.97636 -1.25699
thorax -16.5479 -0.769619 -11.3208
lowerneck 9.13571 -5.29132 1.23492
upperneck 10.6916 -9.39512 10.0612
head 2.39918 -5.21361 3.10903
rclavicle 6.04305e-014 -2.8625e-014
rhumerus 94.5112 -4.86948 -151.226
rradius 20.123
rwrist 75.8437
rhand 36.6318 11.3807
rfingers 7.12502
rthumb 59.5493 -2.86414
lclavicle 6.04305e-014 -2.8625e-014
lhumerus 90.1032 -10.2086 48.394
lradius 24.0661
lwrist -5.58271
lhand -29.3696 -4.21405
lfingers 7.12502
lthumb -2.70862 25.7485
rfemur -100.388 -9.7928 37.9145
rtibia 123.996
rfoot -18.869 -8.84025
rtoes 27.7837
lfemur -103.626 12.2256 -22.2371
ltibia 108.675
lfoot 7.21172 -35.5388
ltoes -15.1075
526
root 13.779 21.2154 9.40298 98.038 -2.13265 -172.758
lowerback 55.5039 -3.43893 18.9355
upperback 2.45612 4.05907 -1.73221
thorax -16.889 -0.784973 -11.9849
lowerneck 9.80097 -5.61036 2.38802
upperneck 10.2045 -9.64573 9.7186
head 2.05962 -5.35301 2.82145
rclavicle 6.20208e-014 -1.90833e-014
rhumerus 95.3314 -5.53065 -152.712
rradius 19.944
rwrist 77.0712
rhand 36.5532 11.1327
rfingers 7.12502
rthumb 59.4818 -3.18038
lclavicle 6.20208e-014 -1.90833e-014
lhumerus 90.5587 -11.1502 47.7686
lradius 24.0774
lwrist -4.97585
lhand -28.7842 -4.07811
lfingers 7.12502
lthumb -2.14327 25.8909
rfemur -100.474 -10.1124 37.7943
rtibia 125.482
rfoot -19.357 -8.97696
rtoes 26.5153
lfemur -103.918 12.2027 -22.701
ltibia 110.589
lfoot 5.88071 -35.2585
ltoes -13.7334
